# xmcd
#
# Track frame offsets:
#	150
#	24839
#	50263
#	77410
#	93655
#	118342
#	142961
#	163780
#	190014
#	214239
#
# Disc length: 3187 seconds
#
# Revision: 2
# Processed by: cddbd v1.5.2PL0 Copyright (c) Steve Scherf et al.
# Submitted via: audiograbber 1.82.02
#
DISCID=7f0c710a
DTITLE=Windimoto - Sinister Beauty
DYEAR=2009
DGENRE=House
TTITLE0=There Are Better Days For Us
TTITLE1=Fever
TTITLE2=Sinister Beauty
TTITLE3=Find A Way
TTITLE4=Shake It Down
TTITLE5=Love You More (Holding On)
TTITLE6=Three Scenes
TTITLE7=A Penthouse View
TTITLE8=An Afternoon In Rio (Only You)
TTITLE9=SMooth It down (DJ Sean Haley's Negra Luna Mix)
EXTD=
EXTT0=
EXTT1=
EXTT2=
EXTT3=
EXTT4=
EXTT5=
EXTT6=
EXTT7=
EXTT8=
EXTT9=
PLAYORDER=
